<svg xmlns="http://www.w3.org/2000/svg" width="438.626" height="277.127" viewBox="0 0 438.626 277.127">
  <g id="Layer_9_xA0_Image_3_" transform="translate(-765.508 -925.103)">
    <g id="Group_396" data-name="Group 396" transform="matrix(1, -0.026, 0.026, 1, 761.488, 933.637)">
      <g id="Group_392" data-name="Group 392" transform="translate(118.117 0)">
        <path id="Path_3716" data-name="Path 3716" d="M207.625,246.221a44.245,44.245,0,0,0-5.888-16.528c-2.656-4.353-5.39-8.654-8.254-12.871a8.58,8.58,0,0,1-1.586-3.332,7.149,7.149,0,0,0-.541-1.606,17.088,17.088,0,0,1-1.312-7.3,46.132,46.132,0,0,1,.952-7.408,22.689,22.689,0,0,0-.311-10.44,55.4,55.4,0,0,0-1.727-5.326,31.5,31.5,0,0,1-2.108-12.481c.074-3.511.109-7.025.486-10.527a35.537,35.537,0,0,1,1.925-8.766c.477-1.271.886-2.568,1.307-3.859a16.9,16.9,0,0,0,.335-9.22,46.091,46.091,0,0,0-2.281-6.926,44.345,44.345,0,0,1-2.137-6.617,21.329,21.329,0,0,1,.747-13.182c.616-1.519,1.063-3.1,1.617-4.65a24.716,24.716,0,0,0,1.392-9.017c-.081-3.4-.11-6.8-.44-10.19a36.5,36.5,0,0,0-2.291-9.893,65.61,65.61,0,0,0-4.4-8.993q-3.588-6.166-7.174-12.334a46.55,46.55,0,0,1-2.888-6.141,21.2,21.2,0,0,1-1.466-9.985,26.156,26.156,0,0,0-.358-7.955,21.182,21.182,0,0,0-5.781-10.4,23.4,23.4,0,0,0-8.831-5.576,26.494,26.494,0,0,0-14.171-1.563,14.1,14.1,0,0,0-6.451,2.847,15.3,15.3,0,0,0-2.85,2.892,3.649,3.649,0,0,1-.965-1.222,29.4,29.4,0,0,0-2.486-3.229A43.348,43.348,0,0,0,114.774,3.976,51.983,51.983,0,0,0,100,.3,49.238,49.238,0,0,0,85.106.925,43.813,43.813,0,0,0,67.028,8.742a25.712,25.712,0,0,0-5.18,5.124A30.448,30.448,0,0,0,56.1,28.39c-.347,2.523-.471,5.077-.725,7.614a38.514,38.514,0,0,1-1.284,7.007,12.322,12.322,0,0,1-4.164,6.261,31.491,31.491,0,0,1-4.9,3.349c-1.943,1.048-3.9,2.068-5.838,3.124a18.354,18.354,0,0,0-4.664,3.368A7.447,7.447,0,0,0,32.508,66.3c.512,2.271,1.33,4.444,1.982,6.669.477,1.629,1.01,3.247,1.38,4.9a7.533,7.533,0,0,1-2.214,7.76,23.6,23.6,0,0,0-1.776,1.829,14.521,14.521,0,0,0-3.456,14.191,44.779,44.779,0,0,0,2.287,6.385,34.266,34.266,0,0,1,1.381,3.466,7.526,7.526,0,0,1-2.335,8.308c-.789.732-1.616,1.424-2.4,2.157a17.814,17.814,0,0,0-3.111,3.807,10.262,10.262,0,0,0-1.491,7.805,13.926,13.926,0,0,0,1.137,3.191c.482.961,1.022,1.893,1.546,2.832a41.555,41.555,0,0,1,2.582,5.348,11.146,11.146,0,0,1-.153,8.921q-.594,1.315-1.2,2.625c-.664,1.439-1.374,2.858-1.987,4.318a18.757,18.757,0,0,0-1.3,10.809c.192,1.059.351,2.124.577,3.175a11.121,11.121,0,0,1-.629,7.147,19.85,19.85,0,0,0-.732,1.9,8.952,8.952,0,0,0,.977,8.279,10.606,10.606,0,0,1,.772,1.317,1.858,1.858,0,0,1-.089,1.914c-1.816,3-3.518,6.075-5.4,9.045-2.33,3.685-4.752,7.314-6.881,11.123-1.132,2.026-2.258,4.057-3.347,6.107-2.017,3.8-4.124,7.556-5.8,11.524a35.486,35.486,0,0,0-2.384,7.238,28.959,28.959,0,0,0,.507,12.3,9.087,9.087,0,0,0,4.8,6.274,18.118,18.118,0,0,0,4.136,1.508,44.085,44.085,0,0,0,5.543.8,44.328,44.328,0,0,0,12.52-.63c.772-.141,1.494-.468,2.163.3.255.291.756.156,1.149.169q10.027.316,20.055.625c5.779.173,11.559.317,17.337.5,8.724.274,17.448.574,26.172.855q10.622.342,21.245.664,13.172.4,26.345.79,11.048.336,22.095.685c1.926.06,3.851.151,5.778.2,2.266.057,4.533.081,6.8.128.56.012,1.012-.1,1.147-.739a.442.442,0,0,1,.506-.344,13.508,13.508,0,0,1,1.354.119c2.634.409,5.287.644,7.942.85a27.336,27.336,0,0,0,6.27-.117,35.821,35.821,0,0,0,5.575-1.451,10.344,10.344,0,0,0,7.12-7.369A23.844,23.844,0,0,0,207.625,246.221Zm-22.725-59.2a26.367,26.367,0,0,0-1.317,4.368h0l.105,4.081h0a.874.874,0,0,1,.275.764c-.008.16-.033.344-.228.362a.337.337,0,0,1-.262-.176,4.512,4.512,0,0,1-.161-.634c-.038-.466-.5-.825-.332-1.343a12.318,12.318,0,0,1,.4-6.017c.175-.595.355-1.188.548-1.777a8.393,8.393,0,0,0-.06-5.325,19.967,19.967,0,0,0-1.079-2.66c-.676-1.369-1.216-2.789-1.754-4.212a8.58,8.58,0,0,1-.449-4.818,49.153,49.153,0,0,1,.706-5.442c-.018-.4-.176-.828.237-1.138a1.189,1.189,0,0,1,.087,1.13,12.977,12.977,0,0,1-.094,3.5,30.048,30.048,0,0,0-.3,4.667,41.867,41.867,0,0,0,2.709,6.192,11.751,11.751,0,0,1,1.364,3.808A8.816,8.816,0,0,1,184.9,187.025ZM173.536,67c.051-.037.259.086.35.179a1.865,1.865,0,0,1,.236.395h0a5.3,5.3,0,0,1,1.007,1.367,6.762,6.762,0,0,1,1.413,2.02h0a9.625,9.625,0,0,1,1.42,2.087,35.831,35.831,0,0,1,4.107,12.11,25.82,25.82,0,0,1-.256,7.417,32.251,32.251,0,0,1-1.081,4.781,66.632,66.632,0,0,0-2.571,12.409q0,2.9-.009,5.8.045.463.091.926a10.366,10.366,0,0,1,.611,3.147l.09.542h0a.819.819,0,0,1,.208.816,54.125,54.125,0,0,0,3.681,10.154,18.3,18.3,0,0,1,1.61,6.875,11.025,11.025,0,0,1-.16,2.7,1.312,1.312,0,0,1-.239,1.157l-.108.544h0a.77.77,0,0,1-.24.8.174.174,0,0,1-.063.225h0c-.418,1.658-.833,3.317-1.256,4.974-.107.421-.043.9-.381,1.247l-.1.9q-.01.342-.021.685h0c.064.461-.209.775-.431,1.162a.96.96,0,0,1-.147-.832,2.412,2.412,0,0,1,.222-1.735h0l.111-.606a26.129,26.129,0,0,1,1.334-5.791,1.482,1.482,0,0,1,.3-1.072.279.279,0,0,1,.047-.289,2.3,2.3,0,0,1,.267-1.464,20.651,20.651,0,0,0-.587-6.393,22.593,22.593,0,0,0-.963-2.713,62.3,62.3,0,0,1-2.706-6.948,17.111,17.111,0,0,1-.854-3.8,8.5,8.5,0,0,1-.565-2.859l-.114-.9h0a2.691,2.691,0,0,1-.253-1.806q-.039-.8-.079-1.591h0a6.614,6.614,0,0,1,0-3.266,30.8,30.8,0,0,1,.859-7.4c.456-2.157,1-4.3,1.567-6.428a39.055,39.055,0,0,0,1.215-7.7,22.256,22.256,0,0,0-.722-6.56,42,42,0,0,0-4.3-10.843,7.853,7.853,0,0,1-1.347-2.055,3.149,3.149,0,0,1-.879-1.443l-.129-.316h0c-.046-.025-.107-.038-.137-.076C173.461,67.357,173.3,67.172,173.536,67Zm-3.8,81.142a.859.859,0,0,1,.341.863.473.473,0,0,0,.028.213.875.875,0,0,1-.028-.212.635.635,0,0,1,.25.552l.1.533h0a3.116,3.116,0,0,1,.263,1.981.1.1,0,0,1-.174.05,1.962,1.962,0,0,1-.416-1.218l-.706-2.38a.3.3,0,0,1-.078-.268h0l-1.6-3.149a2.173,2.173,0,0,1-.523-.943,1.358,1.358,0,0,1-.55-.727,3.311,3.311,0,0,1-1.041-1.363c-.14-.07-.253-.159-.247-.336h0l-.218-.275-.383-.391h0a3.28,3.28,0,0,1-1.314-1.2l-.219-.35c-.177-.088-.343-.187-.384-.4a.987.987,0,0,1-.59-.421,4.236,4.236,0,0,1-1.417-1.034,1.146,1.146,0,0,1-.689-.568l-.307-.221h0a3.4,3.4,0,0,1-1.332-.929h0c-.315.019-.495-.2-.689-.392h0c-.3,0-.487-.221-.708-.375h0l-1.313-.641h0c-.4-.13-.841-.169-1.1-.563a.4.4,0,0,1-.268-.076c-.412.081-.7-.219-1.047-.341a3.4,3.4,0,0,1-1.452-.615c-.25-.018-.508-.019-.635-.3l-.59-.139h0a2.7,2.7,0,0,1-1.473-.6.26.26,0,0,1-.2-.045,1.946,1.946,0,0,1-1.482-.678c-.1-.021-.26-.009-.3-.069-.118-.2.054-.247.2-.268a1.061,1.061,0,0,1,.893.274c.231.051.495.038.615.309h0l.666.18h0c.473.165,1.015.167,1.386.578h0a.4.4,0,0,1,.307.09l1.033.362c.364.141.783.155,1.078.458.353.083.753.063.972.44h0l.334.072h0a2.287,2.287,0,0,1,1.372.624,1.838,1.838,0,0,1,1.049.611h0c.266.05.55.072.649.4a1.528,1.528,0,0,1,1.127.678,1.283,1.283,0,0,1,.952.612h0a.286.286,0,0,1,.29.132h0a.92.92,0,0,1,.705.5h0l.316.2h0a2.747,2.747,0,0,1,1.317,1h0l.324.341.074.056c.182-.007.267.106.319.259a6.244,6.244,0,0,1,2.054,2.061.382.382,0,0,1,.282.351,1.377,1.377,0,0,1,.579.642,1.973,1.973,0,0,1,.8,1.042h0a2.243,2.243,0,0,1,.659,1.016,1.006,1.006,0,0,1,.43.643h0a8.1,8.1,0,0,1,1.633,3.108A.294.294,0,0,1,169.732,148.143Zm-104.177-41a1.36,1.36,0,0,1-.663-.689h0a1.164,1.164,0,0,1-.639-.765c.232.008.482-.045.648.189l1.078.512a2.075,2.075,0,0,1,.006.294,4.012,4.012,0,0,1,.385.315,63.527,63.527,0,0,0,7.161,6.434,30.4,30.4,0,0,1,5.011,4.77,10.545,10.545,0,0,1,2.24,4.31,6.665,6.665,0,0,1-.864,5.651,4.733,4.733,0,0,1-.362.537.3.3,0,0,1-.284.054.38.38,0,0,1-.108-.29.859.859,0,0,1,.327-.736c.137-.6.314-1.2.4-1.812a8.824,8.824,0,0,0-1.647-6.4,18.255,18.255,0,0,0-3.047-3.4c-1.354-1.2-2.74-2.356-4.137-3.5a37.428,37.428,0,0,1-5.511-5.471Zm-1.5-6.219a4.218,4.218,0,0,0,6.148,1.841,1.686,1.686,0,0,1,.453-.22.34.34,0,0,1,.289.062.293.293,0,0,1-.008.443,3.912,3.912,0,0,1-1.943.961,5.009,5.009,0,0,1-.685.073,4.712,4.712,0,0,1-3.822-1.429,7.062,7.062,0,0,1-.619-8.893,1.379,1.379,0,0,1,.392-.294c.043-.028.14-.048.16-.025.068.076.179.2.155.256-.184.408-.4.8-.6,1.2A6.347,6.347,0,0,0,64.055,100.922Zm8.187.147a.324.324,0,0,1,.307.313.433.433,0,0,1-.4.4.308.308,0,0,1-.256-.126C71.793,101.475,72.025,101.105,72.242,101.069Zm5.934,37.3c1.438-.511,2.9-.958,4.349-1.434a.316.316,0,0,1,.422.042,3.318,3.318,0,0,1-.194.456,8.654,8.654,0,0,0-.505,7.967,10.445,10.445,0,0,0,1.476,2.656q1.49,1.951,3.084,3.822a15.024,15.024,0,0,0,4.068,3.282c.436.248.851.534,1.275.8h0c-.222.4-.607.389-.992.4a14,14,0,0,0-2.763.072c-2.6-.069-5.211-.105-7.814-.216-3.68-.156-7.359-.353-11.037-.561-2.772-.157-5.539-.388-8.312-.535-2.207-.117-4.418-.157-6.627-.23-.283-.009-.567,0-.85-.024-.432-.03-.562-.33-.282-.7.341-.451.7-.893,1.076-1.313a44.206,44.206,0,0,1,9.057-7.66A69.889,69.889,0,0,1,78.176,138.369ZM90.19,152.953a23.365,23.365,0,0,1-6.363-7.621,7.266,7.266,0,0,1-.815-4.1,5.821,5.821,0,0,1,3.432-5.076,16.3,16.3,0,0,1,3.528-1.174c1.03-.237,2.085-.368,3.088-.538a1.11,1.11,0,0,1,.224.867c-.091,1.581-.145,3.164-.281,4.741a1.89,1.89,0,0,0,.768,1.757,19.865,19.865,0,0,0,7.748,4.041c.525.139,1.049.282,1.573.424-.159.483-.577.6-.892.81a53.259,53.259,0,0,0-5.469,4.289,23.247,23.247,0,0,0-2.913,3.076.612.612,0,0,1-.883.183A29.352,29.352,0,0,1,90.19,152.953Zm5.569-11.463a20.516,20.516,0,0,0,9.016-3.692A43.377,43.377,0,0,0,116,126.36c.312-.455.637-.9.921-1.3.369.013.314.223.309.368-.179,5.088-.374,10.175-.533,15.263a1.534,1.534,0,0,1-.7,1.257,14.136,14.136,0,0,1-6.289,2.8,17.864,17.864,0,0,1-13.274-2.766C96.3,141.889,96.17,141.786,95.759,141.489Zm-1.532,14.867h0c2.617-3.66,6.131-6.311,9.857-8.715a15.933,15.933,0,0,0,1.752-1.138,45.982,45.982,0,0,1,10.332,10.149,4.724,4.724,0,0,1,.433.717.3.3,0,0,1-.136.258,2.63,2.63,0,0,1-.674.026c-3.671-.337-7.356-.213-11.032-.354-3.56-.136-7.128-.2-10.674-.618Q94.157,156.518,94.227,156.356Zm14.126-9.664a3.642,3.642,0,0,1,1.652-.518,17.06,17.06,0,0,0,6.91-3.055,2.888,2.888,0,0,0,1.26-2.429c.027-.848.042-1.7.068-2.544.024-.791.047-1.583.088-2.373.021-.418.3-.58.689-.379a15.181,15.181,0,0,1,3.987,2.543,9.314,9.314,0,0,1,2.669,8.382,10.015,10.015,0,0,1-2.012,4.613,59.452,59.452,0,0,1-5.247,6.225C115.4,153.225,112.428,149.468,108.353,146.692Zm12.305,10.251c1.454-1.593,2.748-3.313,4.082-5a11.5,11.5,0,0,0,.445-13.778c-.123-.179-.219-.376-.327-.564.327-.247.581-.015.825.058a34.811,34.811,0,0,1,6,2.334,72.041,72.041,0,0,1,19.354,14.225,29.491,29.491,0,0,1,2.92,3.535c.152.219.41.413.3.754-.23.228-.519.116-.777.1-7.644-.387-15.294-.512-22.947-.526-3.231-.006-6.461-.056-9.686-.284-.211-.015-.447.039-.615-.191C120.185,157.276,120.483,157.136,120.658,156.943Zm6.918-34.237a15.237,15.237,0,0,0,.816,4.659,6.635,6.635,0,0,0,2.631,3.426c1.239.787,2.389,1.717,3.559,2.609a26.424,26.424,0,0,0,6.029,3.429,39.044,39.044,0,0,1,6.744,3.553,19.7,19.7,0,0,1,5.007,4.787,3.909,3.909,0,0,1,.737,1.326h0c.229-.028.257.14.295.3h0l.338.375h0c.174.264.359.523.515.8a.314.314,0,0,1-.026.281c-.03.042-.2.038-.257-.005a1.547,1.547,0,0,1-.6-.727h0a.318.318,0,0,1-.008-.263,1.1,1.1,0,0,1-.686-.746,9.567,9.567,0,0,1-.737-.7,29.594,29.594,0,0,0-11.229-7.727,32.934,32.934,0,0,1-7.6-4.426c-1.022-.806-2.063-1.59-3.127-2.339a5.786,5.786,0,0,1-1.846-2.173,13.019,13.019,0,0,1-1.223-7.1,1,1,0,0,1,.2-.459.35.35,0,0,1,.282-.133.313.313,0,0,1,.188.232C127.592,122.027,127.556,122.368,127.577,122.706Zm12.508-4.1a.735.735,0,0,1,.315-.691h0l.292-.325c.012-.029.026-.045.04-.045.039-.159.083-.313.3-.293a13.752,13.752,0,0,1,.849-1.452,69.08,69.08,0,0,0,6.084-10.523c.1-.2.209-.4.314-.6a2.369,2.369,0,0,1,.612-1.426.411.411,0,0,1,.073-.284.642.642,0,0,1-.051-.331c.247-.094.482-.4.756-.046a.984.984,0,0,1-.35.774.361.361,0,0,1-.068.272,2.341,2.341,0,0,1-.561,1.483h0a42.257,42.257,0,0,1-6.632,11.528c-.182.214-.393.4-.59.6h0a1.006,1.006,0,0,1-.694.7.454.454,0,0,1-.339.378.386.386,0,0,1-.331.295c-.029.047-.068.137-.086.133-.119-.026-.095-.085.067-.151Zm5.428-22.093c.072.152.155.3.215.457a4.029,4.029,0,0,0,2.948,2.733c.094.021.149.266.19.415a.591.591,0,0,1-.282.136,2.339,2.339,0,0,1-1.705-.59,4.136,4.136,0,0,1-1.716-2.41,5.816,5.816,0,0,1,.109-5.187,4.023,4.023,0,0,1,1.833-1.917,1.132,1.132,0,0,1,.811-.134c.082.019.153.127.207.209a.166.166,0,0,1-.021.16,1.792,1.792,0,0,1-.394.3c-1.895.917-2.329,2.593-2.326,4.486A13.376,13.376,0,0,0,145.512,96.511ZM149.8,69.467c-.018-.225-.045-.451-.046-.676,0-.515.134-.683.642-.841a5,5,0,0,1,5.171,1.2,8.437,8.437,0,0,1,2.188,3.575,15.083,15.083,0,0,1,.641,6.7,17.65,17.65,0,0,1-4.428,10.237c-1.821-.533-3.459-1.559-5.325-1.971q.371-2.939.741-5.878A61.077,61.077,0,0,0,149.8,69.467Zm2.054,29.3a.537.537,0,0,1-.462.4.422.422,0,0,1-.376-.573.4.4,0,0,1,.493-.3A.475.475,0,0,1,151.851,98.763ZM162.588,110.4h0a4.624,4.624,0,0,1,.236,2.467h0q.048,1.494.1,2.988h0a1.688,1.688,0,0,1,.28,1.1c.028.992.049,1.984.074,2.977h0a2.523,2.523,0,0,1,.259,1.772h0q.018.667.035,1.334c.5.473.273,1.112.38,1.674a8.517,8.517,0,0,1,.632,3.412l.01.011h0c0,.006,0,.012,0,.017a1.042,1.042,0,0,1,.222.194c.079.117.029.212-.108.228-.023,0-.072-.078-.082-.126a2.721,2.721,0,0,1-.033-.3l-.011-.009c0-.007,0-.013,0-.019a3.676,3.676,0,0,1-.676-1.643c-.111-.371-.2-.749-.292-1.124h0c.036-.8-.443-1.526-.336-2.336h0q-.042-.488-.084-.976h0a1.127,1.127,0,0,1-.255-1.1q-.171-2.372-.343-4.745h0q-.048-1.313-.1-2.626a5.723,5.723,0,0,1-.245-2.81q-.029-1.18-.059-2.359h0a3.551,3.551,0,0,1-.236-2.418,5.794,5.794,0,0,1,.535,2.433Zm-24.047-88.37c.158-.154.3-.327.548-.329a.556.556,0,0,1,.307-.1h0c.241-.392.662-.4,1.045-.492l1.713-.4h0l.6-.094a1.419,1.419,0,0,1,1.116-.274h0l.331-.006h0l.558-.061h0a7.656,7.656,0,0,1,4.3,0h0l1.223.089h0a1.438,1.438,0,0,1,1.18.244,5.991,5.991,0,0,1,1.15.167,19.622,19.622,0,0,1,6.142,3.28,3.493,3.493,0,0,1,1.2.913,20.588,20.588,0,0,1,3.967,5.473c1.262,2.433,1.237,5.128,1.139,7.793q-.093,2.543-.247,5.084A23.841,23.841,0,0,0,167.3,55.491c.249.5.463,1.027.693,1.542h0a2.638,2.638,0,0,1,.7,1.316h0a2.454,2.454,0,0,1,.191.392l.166.338h0c.092.129.234.248.262.39a.269.269,0,0,1,0,.052.284.284,0,0,1-.436.224.678.678,0,0,1-.073-.053c-.073-.062-.091-.189-.134-.287a5.048,5.048,0,0,1-1.043-1.659,20.9,20.9,0,0,1-3.856-12.778c0-2.152.129-4.3.2-6.456.007-.227.026-.453.038-.679.275-5.213-.807-8.475-5.609-13.029-.121-.114-.228-.243-.341-.365-.534-.308-1.08-.6-1.6-.928a16.92,16.92,0,0,0-7.268-2.6,1.765,1.765,0,0,1-1.048-.094l-2.92-.208-.21.065a3.8,3.8,0,0,1-2,.312l-.552.061h0a2.967,2.967,0,0,1-1.58.339h0c-.4.448-1.008.344-1.5.555h0a.435.435,0,0,1-.315.1.408.408,0,0,1-.366.28.284.284,0,0,1-.151-.029C138.426,22.221,138.428,22.137,138.541,22.026Zm-.157,10.733a3.9,3.9,0,0,1,.333-1.416.2.2,0,0,1,.39.063c.116,1.136-.107,2.1-.066,3.06.048,1.126.052,2.254.075,3.382h0a2.811,2.811,0,0,1,.263,1.515l.4,1.634c.2.46.433.908.6,1.38a21.944,21.944,0,0,0,3.375,6.184,44.585,44.585,0,0,0,5.525,6.122l.8.488a.286.286,0,0,1-.193.527,1.781,1.781,0,0,1-1.018-.62,4.765,4.765,0,0,1-1.594-1.235,40.315,40.315,0,0,1-5.427-6.719,18.524,18.524,0,0,1-2.39-5.391,2.408,2.408,0,0,1-.412-1.3,2.451,2.451,0,0,1-.349-1.621v0a3.368,3.368,0,0,1-.259-1.832A21.094,21.094,0,0,1,138.384,32.759Zm-10.963,7.28c.147.34.269.593.366.855.592,1.59,1.153,3.191,1.771,4.77a24.375,24.375,0,0,0,4.637,7.461q2.389,2.655,5,5.09a29.227,29.227,0,0,0,7.58,5.1,1.834,1.834,0,0,1,1.155,1.662,68.439,68.439,0,0,1-.221,18.46c-.184,1.289-.341,2.582-.51,3.873-.282.363.04.844-.233,1.21-.565.715-1.431,1.067-2.046,1.737-2.007,2.187-2.326,4.759-1.845,7.549.094.547.592,1.191-.222,1.631a46.608,46.608,0,0,1-6.623,8.378,55.48,55.48,0,0,1-13.776,10.393,33.687,33.687,0,0,1-10.6,3.444,52.345,52.345,0,0,1-5.737.642,20.168,20.168,0,0,1-9.377-1.983,38.833,38.833,0,0,1-9.385-5.741c-1.952-1.64-3.939-3.239-5.853-4.922a38.929,38.929,0,0,1-6.747-8.053c-.544-.613-.239-1.281-.1-1.924.978-4.6-.665-7.852-4.963-9.8a1.536,1.536,0,0,1-.909-.7,157.718,157.718,0,0,1-3.738-16.723,6.4,6.4,0,0,1-.138-1.955,1.324,1.324,0,0,1,.386-.136,31.187,31.187,0,0,0,10.354-1.6c1.238-.356,2.469-.737,3.942-1.177-.625.691-1.083,1.177-1.517,1.685a3.077,3.077,0,0,0-.452.712.6.6,0,0,0,.238.742.549.549,0,0,0,.768.03,11.143,11.143,0,0,0,.821-.851,9.914,9.914,0,0,1,6.2-3.219,6.467,6.467,0,0,1,5.4,1.456,2.666,2.666,0,0,0,.532.411.615.615,0,0,0,.772-.128.653.653,0,0,0,.125-.782,2.41,2.41,0,0,0-.519-.655,7.292,7.292,0,0,0-3.98-1.746c-.431-.057-.868-.075-1.348-.114.261-.607.834-.639,1.268-.825a171.281,171.281,0,0,0,19.058-9.662A129.807,129.807,0,0,0,123.25,43.582c1.144-.927,2.236-1.918,3.354-2.876C126.853,40.492,127.113,40.29,127.421,40.04Zm-38,14.32h0l.327-.063h.007c.2-.393.541-.38.9-.328h0a.914.914,0,0,1,.8-.372h0c.236-.4.69-.385,1.048-.553h0l1.014-.362h0a.5.5,0,0,1,.326-.062h0a.719.719,0,0,1,.833-.356h0c.294-.426.8-.436,1.218-.6h0l.517-.046h0c.053-.419.361-.345.639-.331.116-.46.582-.383.876-.57l.683-.346.682-.348.679-.355h0l.343-.072c0,.021,0,.041,0,.062,0-.021,0-.041,0-.062.1-.338.4-.366.668-.456.056-.284.253-.313.489-.271h0a1.405,1.405,0,0,1,.9-.582h0l.292-.053a.093.093,0,0,1,.03-.005h0c.1-.329.419-.365.659-.508a.977.977,0,0,1,.705-.462h0c.316-.175.562-.5.983-.45h0c0-.26.163-.308.375-.3a.558.558,0,0,1,.623-.388l.076.063-.076-.063c.02-.235.194-.3.384-.357.11-.343.411-.439.705-.544h0l.314-.167a.9.9,0,0,1,.7-.537h0l.315-.221h0a2.006,2.006,0,0,1,1.045-.779h0l.291-.094a.063.063,0,0,1,.032-.01c.005-.23.142-.3.349-.3a.578.578,0,0,1,.636-.379l.054.042-.053-.042c0-.247.185-.328.368-.41a2,2,0,0,1,1.051-.84h0l.266-.159a.064.064,0,0,1,.044-.027,1.985,1.985,0,0,1,1.048-.855h0l.323-.063,0,0c.044.259-.136.35-.326.435a1.918,1.918,0,0,1-1.075.886,1.09,1.09,0,0,1-.253.167.03.03,0,0,1-.021.011,2,2,0,0,1-1.085.845l-.131.078-.151-.021h0a.883.883,0,0,1-.75.645l-.269.226h0l-.282.2c-.015.022-.031.034-.047.034h0a2.033,2.033,0,0,1-1.09.855.526.526,0,0,1-.281.146.941.941,0,0,1-.745.565.708.708,0,0,1-.233.141.04.04,0,0,1-.022.01l0,0a.923.923,0,0,1-.752.544l-.121.073-.139-.017h0a.927.927,0,0,1-.784.6l-.117.1-.15-.034,0,0,0,0a1.506,1.506,0,0,1-.954.736.048.048,0,0,1-.029.013h0a.977.977,0,0,1-.768.534l-.684.336a.3.3,0,0,1-.259.148c0,.192-.121.25-.284.266a2.326,2.326,0,0,1-1.173.629l-.64.294h0l-.337.069c-.1.353-.363.4-.674.34-.093.373-.364.4-.674.344-.1.377-.369.4-.682.333-.14.406-.45.419-.8.347-.066.473-.4.373-.7.327.033.421-.293.333-.528.372h0a.647.647,0,0,1-.626.366,3.279,3.279,0,0,1-1.462.615h0l-.149.046-.156-.01a.652.652,0,0,1-.626.376,3.7,3.7,0,0,1-1.471.615.34.34,0,0,1-.231.042c-.4.423-.966.422-1.461.6h0l-.149.052-.156-.021a1.991,1.991,0,0,1-1.344.386h0c-.207.459-.642.337-1.007.395-.265.381-.671.277-1.039.3-.25.4-.654.307-1.025.321-.374.489-.868.285-1.371.153L85,55.7h0l1.038-.3h0l1.012-.312h0l.989-.306a.085.085,0,0,1,.04-.012h0C88.553,54.721,88.913,54.3,89.417,54.36Zm26.519-15.786a5.383,5.383,0,0,1,1.726-1.54h0l.321-.05s0,0,0-.007h.005c-.018-.24.1-.345.334-.335,0,0,0,0,0,0l0,0,0,0h0c-.01-.234.105-.34.333-.334a.293.293,0,0,1-.333.334s0,0,0,0h-.005a.3.3,0,0,1-.334.335s0,0,0,.007l0,0,0,0h-.006a.405.405,0,0,1-.3.4.03.03,0,0,1-.019.008,4.675,4.675,0,0,1-1.749,1.594h0l-.148.078-.153-.043s0,0,0,.006l-.008-.008.008,0C115.578,38.766,115.756,38.669,115.936,38.574Zm-.333.44.008.008H115.6c.037.248-.133.343-.321.424a1.886,1.886,0,0,1-1.071.905l-.146.077-.156-.052,0,0c-.031-.249.14-.336.33-.409a1.943,1.943,0,0,1,1.049-.887h0l.319-.056S115.6,39.017,115.6,39.013Zm3.734-3.4.017,0a.309.309,0,0,1,.321-.32c0-.005,0-.01,0-.016l.016.014-.018,0a.307.307,0,0,1-.321.32c0,.006,0,.011,0,.017h-.016a.294.294,0,0,1-.324.324s0,.008,0,.013L119,35.953l.012.012H119a.291.291,0,0,1-.329.33s0,0,0,.007l-.007-.007h.007c-.005-.227.169-.168.329-.33v-.012h.013a.293.293,0,0,1,.324-.324c0-.005,0-.01,0-.016l.012.012Zm.372-.651a.631.631,0,0,1,.649-.373l.153-.137-.134.154h0a.418.418,0,0,1-.329.332h0a.4.4,0,0,1-.357.335c0,.005,0,.01,0,.016l-.016-.014.013,0A.592.592,0,0,1,119.709,34.96Zm-54.455,15.6a4.859,4.859,0,0,1,1.288-1.354l.018-.014h-.018c.071-.178.167-.326.384-.337h0c.02-.2.107-.346.336-.353l0,0,.108-.293h.036c-.012-.005-.024-.008-.036-.014a2.07,2.07,0,0,1,.853-1.052h0c.065-.18.143-.35.365-.38a.247.247,0,0,1,.1-.275.925.925,0,0,1,.512-.707h.007a2.031,2.031,0,0,1,.768-1l.008-.008.134-.325-.006-.01a2.318,2.318,0,0,1,.637-1.015h0c0-.293.214-.467.363-.678h.01l.677-1.325a2.03,2.03,0,0,1,.586-1.075l.432-.972a14.453,14.453,0,0,1,1.5-3.117h0a1.264,1.264,0,0,1,.441-.844.652.652,0,0,1,.325-.687c-.034-.226-.018-.426.25-.5h0c.109-.25.107-.576.453-.666l.007-.01.084-.311H75.9l-.011-.014.31-.67h0a2.827,2.827,0,0,1,.819-1.385h0l.228-.32a2.741,2.741,0,0,1,.894-1.382.3.3,0,0,1,.1-.3h.02l-.02-.015a.929.929,0,0,1,.465-.709h0l.209-.312h0a.913.913,0,0,1,.5-.711l.012-.007.168-.286.093.138a1.058,1.058,0,0,0-.093-.152,3.474,3.474,0,0,1,.976-1.381,2.719,2.719,0,0,1,.882-1.034h0c.08-.164.16-.329.368-.364a.739.739,0,0,1,.438-.539.053.053,0,0,1,.033-.016.515.515,0,0,1,.358-.391l.03.041h0l-.034-.041a.382.382,0,0,1,.307-.356h0a12.438,12.438,0,0,1,3.078-3.086l.353-.321a2.67,2.67,0,0,1,1.33-.991l.012.009.281-.125c.006-.007.009-.014.016-.021a3.977,3.977,0,0,1,1.71-1.036l.006.007a1.64,1.64,0,0,1,1.036-.528.489.489,0,0,0,.058.039l-.058-.053a.288.288,0,0,1,.264-.085.74.74,0,0,1,.682-.342,1.2,1.2,0,0,1,.895-.364l.02,0a3.881,3.881,0,0,1,1.6-.558l.451-.081a5.681,5.681,0,0,1,2.211-.59l.7-.108a.556.556,0,0,1,.612-.168.589.589,0,0,0,.077.024l-.076-.024,1.658-.164a2.679,2.679,0,0,1,.617-.2,29.15,29.15,0,0,1,4.963.019,2.84,2.84,0,0,1,.619.205l-.13.113.167,0-.038-.117,1.338.088h0a1.986,1.986,0,0,1,1.454.239,2.778,2.778,0,0,1,1.346.217.133.133,0,0,1,.21.07,3,3,0,0,1,1.632.431l.433.044h0a1.094,1.094,0,0,1,.792.259,4.886,4.886,0,0,1,2.075.665l.551.128h0a6.456,6.456,0,0,1,2.425.946h0a2.646,2.646,0,0,1,1.376.685.3.3,0,0,1,.3.059,2.63,2.63,0,0,1,1.386.61h0l1,.48c.262.1.561.131.714.416h0a.4.4,0,0,1,.137.057c.09.09.258.226.236.28-.06.149-.22.165-.369.079a1.768,1.768,0,0,1-1.139-.6h0l-.886-.4a2.309,2.309,0,0,1-1.444-.6h0a.816.816,0,0,1-.664-.36c-.39.036-.665-.219-.976-.384a9.325,9.325,0,0,1-2.432-.936h0l-.627-.142h0l-1.021-.289h0a1.151,1.151,0,0,1-.789-.282l-.116.016-.1-.057h0a.894.894,0,0,1-.768-.261,2.753,2.753,0,0,1-1.472-.387h0l-.015-.01h0a1.9,1.9,0,0,1-1.359-.336h0l-.717-.044h0a3.714,3.714,0,0,1-1.966-.293h0l-.437-.04h0l-1.417-.032H101.29l-1.083.013-1.112.082a2.459,2.459,0,0,1-1.642.3l-.5.06a1.436,1.436,0,0,1-1.23.29h0a1.679,1.679,0,0,1-1.218.4,1.015,1.015,0,0,1-.868.295l-.045.018a4.89,4.89,0,0,1-1.472.6l-.7.279a.32.32,0,0,1-.288.1l-.005,0c0,.007,0,.012.005.019a2.744,2.744,0,0,1-1.38.68s0-.009,0-.014l-1.679,1.01h0a3.614,3.614,0,0,1-1.391,1.008h0l-.06,0-.014.015h.014a1.288,1.288,0,0,1-.6.532l.216-.5h.017l-.017-.013-.1-.055-.109.029.126.156a1.139,1.139,0,0,1-.134.375,21.924,21.924,0,0,1-2.6,2.561h0a.478.478,0,0,1-.384.361.5.5,0,0,1-.391.414.36.36,0,0,1-.327.346h0a.175.175,0,0,1-.161.224l-.244.323a2.229,2.229,0,0,1-.845,1.052c-.012.008-.025.012-.037.018l.037,0-.2.3,0,0a4.124,4.124,0,0,1-.974,1.386,1.211,1.211,0,0,1-.562.694l-.173.3a.951.951,0,0,1-.5.723l-.021.013h.021l-.219.317h-.006a3,3,0,0,1-.907,1.351h0a.309.309,0,0,1-.059.315,2.968,2.968,0,0,1-.84,1.4c-.137.237-.154.562-.485.656l-.011.014h.01l-.09.335h-.007l-.3.647h0a2.26,2.26,0,0,1-.587,1.125.785.785,0,0,1-.356.647.294.294,0,0,1-.078.276,18.2,18.2,0,0,1-1.622,3.452l-.417.962a1.86,1.86,0,0,1-.594,1.086,1.744,1.744,0,0,1-.637,1.006l-.01.011c-.042.268-.088.533-.4.637a1.324,1.324,0,0,1-.636,1.043l-.005.006h.012l-.138.314h-.013l.006.007a2.792,2.792,0,0,1-.635,1l0,0a.9.9,0,0,1-.531.706.6.6,0,0,1-.4.43.282.282,0,0,0-.123-.169l.123.169a.149.149,0,0,1-.062.213A2.013,2.013,0,0,1,67.8,48.2c-.012.006-.024.009-.036.014H67.8a.784.784,0,0,1-.463.4.183.183,0,0,1-.107.243l-.242.332H66.97l.017.014A5.765,5.765,0,0,1,65.247,51h0a.335.335,0,0,1-.3.286l-.078-.077A.678.678,0,0,1,65.254,50.559Zm-.375.667.078.077-.2.127C64.8,51.362,64.838,51.294,64.88,51.226ZM58.454,76.161a7.8,7.8,0,0,1,1.466-3.385,2.92,2.92,0,0,1,3.017-1.083.748.748,0,0,1,.676.647q.222,1.337.445,2.675A135.164,135.164,0,0,0,67.3,89.378,8.787,8.787,0,0,0,63,91.842a1.6,1.6,0,0,1-.435.235,19.217,19.217,0,0,1-4.1-9.345A16.738,16.738,0,0,1,58.454,76.161Zm-5.3,18.946a6.477,6.477,0,0,1,.519,1.966l.265,1.232a1.258,1.258,0,0,1,.059.578c.006.119.011.235.017.354l.249,1.257a4.626,4.626,0,0,0,.358,1.028,1.317,1.317,0,0,1,.1.342,2.884,2.884,0,0,0,.232.722,7.36,7.36,0,0,1,.372,1.424l.013.052a3.2,3.2,0,0,0,.344.8,4.073,4.073,0,0,1,.343,1.187h0c.042.212.869,2.229,1.011,2.727h0c.07.1,1.236,3.227,1.365,3.743.019.15.218.716.347,1.171a3.5,3.5,0,0,0,.338.757,7.262,7.262,0,0,1,.3,1.132c.129.561.383.819.516,1.455a4.32,4.32,0,0,1,.365,1.431s.095.6.112.828c0,0,.1,1.088.176,1.652a11.572,11.572,0,0,1,.328,1.8,10.652,10.652,0,0,1,.05,1.574,8.428,8.428,0,0,0-.111.837c-.01.286-.076.579-.4.672-.2.059-.315-.4-.176-.859a10.2,10.2,0,0,0-.08-1.3c0-.451.013-.9.021-1.352q.006-.506.012-1.011l-.315-2.016h0c-.016-.185-.556-2.007-.722-2.92a9.321,9.321,0,0,0-.335-1.3c-.246-.733-.57-1.7-.635-1.9l-.561-1.369q-.142-.347-.257-.705l-.02-.063-.932-2.335a4.872,4.872,0,0,1-.289-1s-.873-2.222-1.008-2.724l-.011-.046a2.958,2.958,0,0,0-.332-.794,4.067,4.067,0,0,1-.343-1.193,10.593,10.593,0,0,1-.375-1.345h0a3.593,3.593,0,0,1-.411-1.228,1.814,1.814,0,0,0-.173-.6,1.831,1.831,0,0,1-.189-.893,3.256,3.256,0,0,0-.136-.967,2.231,2.231,0,0,1-.118-.725,15.8,15.8,0,0,1-.237-2A.184.184,0,0,1,53.155,95.108ZM52.9,140.768A29.953,29.953,0,0,1,61.935,137c1.05-.217,2.087-.5,3.127-.766a21.779,21.779,0,0,0,4.246-1.665.339.339,0,0,1,.37-.276l.045-.032h0a.29.29,0,0,1,.314-.281l.055-.051h0a.284.284,0,0,1,.286-.3l.036-.044a.305.305,0,0,1,.289-.34h0l.012-.015a4.942,4.942,0,0,1,.986-1.415,1.731,1.731,0,0,1,.268-.341c.067-.053.264-.066.285-.029a.652.652,0,0,1,.111.415c-.032.136-.175.245-.27.366h0a4.76,4.76,0,0,1-1.029,1.673l-.025.044c.027.2-.043.327-.256.351l-.03.037a.332.332,0,0,1-.3.363,6.444,6.444,0,0,1-2.917,1.949c-1.252.513-2.54.945-3.83,1.358a48.62,48.62,0,0,0-8.634,3.47,19.036,19.036,0,0,0-6.246,5.125,19.693,19.693,0,0,1-2.158,2.119,5.559,5.559,0,0,1,1.336-3.8A18.691,18.691,0,0,1,52.9,140.768ZM38.333,90.905a26.134,26.134,0,0,1,1.74-3.473c.171-.3.351-.595.551-.877,2.427-3.429,2.726-7.243,1.967-11.216-.361-1.888-.9-3.741-1.3-5.622a11.374,11.374,0,0,1-.222-4.886A6.382,6.382,0,0,1,42.4,61.765h0a1.757,1.757,0,0,1,.628-.97,19.426,19.426,0,0,1,4.1-3.467l2.837-2.978h0a2.5,2.5,0,0,1,.249-.414c.108-.122.283-.207.386-.009a.238.238,0,0,1-.024.286,2.922,2.922,0,0,0-.383.474,9.8,9.8,0,0,1-2.585,3.066c-.643.543-1.292,1.078-1.926,1.63a21.455,21.455,0,0,0-2.861,3.089,9.558,9.558,0,0,0-.382,6.319c.4,1.532.808,3.063,1.23,4.589a19.106,19.106,0,0,1,.679,7.395,11.748,11.748,0,0,1-1.68,4.767c-.47.774-.991,1.517-1.474,2.283a17.479,17.479,0,0,0-2.8,7.043c-.015.112-.046.222-.064.333a.4.4,0,0,1-.308.348c-.273.067-.256-.177-.27-.311A9.072,9.072,0,0,1,38.333,90.905ZM35.624,135.9a6.661,6.661,0,0,1,.593-2.459,46.639,46.639,0,0,1,4.173-8.108.215.215,0,0,1,.107-.261.38.38,0,0,1,.234-.425.2.2,0,0,1,.09-.255.748.748,0,0,1,.286-.677l0-.007h0a1.462,1.462,0,0,1,.317-1.076,1.545,1.545,0,0,1,0-.335,15.326,15.326,0,0,0-.639-8.279,30.906,30.906,0,0,1-1.445-5.52,5.668,5.668,0,0,1-.239-3.064,1.733,1.733,0,0,1,.6,1.644c.837,2.691,1.654,5.389,2.517,8.072a13.2,13.2,0,0,1-.193,8.313,4.192,4.192,0,0,1-.306.6.356.356,0,0,1-.219.417.21.21,0,0,1-.1.261.364.364,0,0,1-.238.417.22.22,0,0,1-.116.264.289.289,0,0,1-.23.363l-.007.015c-.807,1.548-1.591,3.107-2.425,4.639a21.427,21.427,0,0,0-2.425,7.187h0q0,.507.006,1.013c.018.33.053.66.044.988a1.312,1.312,0,0,1-.156.407c-.117-.1-.271-.177-.341-.3a1.592,1.592,0,0,1-.1-.471A6.972,6.972,0,0,1,35.624,135.9Zm-3.359,24.892h0c.022-.177.071-.333.282-.362h0c0-.278.021-.549.343-.663h0l.142-.321h0c.093-.288.167-.589.5-.709h0l.548-.989a11.033,11.033,0,0,1,1.183-2.171h0l.47-1.228h0l.657-2.052h0l.337-2.011c0-.392-.024-.784-.006-1.175.006-.138.032-.379.266-.288a.551.551,0,0,1,.3.351,3.01,3.01,0,0,1-.2,2.131,3.063,3.063,0,0,1-.345,1.466h0a4.552,4.552,0,0,1-.712,2.272h0a1.961,1.961,0,0,1-.419.974,5.74,5.74,0,0,1-1.282,2.1h0l-.371.622a.933.933,0,0,1-.507.718h0l-.184.287a.922.922,0,0,1-.635.75h0a.444.444,0,0,1-.029.282c-.043.1-.063.218-.135.281-.1.091-.33.223-.358.194C31.89,161.027,32.076,160.9,32.265,160.789Zm-2.411,86.48c-.017.906-.03,1.815-.1,2.718-.2,2.375-.213,4.755-.214,7.135a3.084,3.084,0,0,1-.18,1.5,9.489,9.489,0,0,1-2.966.675,23.444,23.444,0,0,1-4.722.509,5.118,5.118,0,0,1-3.132-1.116,8.806,8.806,0,0,1-2.916-4.1,4.332,4.332,0,0,1,.872-4.449,8.947,8.947,0,0,1,3.742-2.579,20.429,20.429,0,0,1,8.651-1.413C29.862,246.217,29.874,246.205,29.854,247.269Zm.986-19.949c-.483,4.567-.523,9.152-.611,13.737a16,16,0,0,1-.319,3.637,3.659,3.659,0,0,1-1.607.059,20.435,20.435,0,0,0-8.475,1.4,11.967,11.967,0,0,0-4.106,2.647,6.184,6.184,0,0,0-1.261,6.887,14.352,14.352,0,0,0,2.258,3.363c.181.191.478.314.446.707a14.092,14.092,0,0,1-3.637-.6,7.993,7.993,0,0,1-3.079-1.355,5.914,5.914,0,0,1-2.517-3.659,14.115,14.115,0,0,1,1.356-10.023,19.067,19.067,0,0,1,2.88-4.183c.416-.463.828-.932,1.269-1.37a84.5,84.5,0,0,1,10.511-8.842,26.551,26.551,0,0,1,5.849-3.051,1.453,1.453,0,0,1,1.047-.155A7.583,7.583,0,0,1,30.841,227.32Zm.359-7.592c-.058,1.415-.172,2.829-.2,4.245a1.057,1.057,0,0,1-.84,1.1c-.7.234-1.387.49-2.07.76a32.179,32.179,0,0,0-8.591,5.4q-1.636,1.355-3.262,2.724a41.773,41.773,0,0,0-6.2,6.276A18.993,18.993,0,0,0,6.26,248.5a15.3,15.3,0,0,0,.657,7.371,5.036,5.036,0,0,0,1.551,2.2q.149.136.1.267t-.1.13a8.715,8.715,0,0,1-2.49-1.048,7.533,7.533,0,0,1-3.577-4.966,28.333,28.333,0,0,1-.585-11.289,33.852,33.852,0,0,1,2.436-7.571c1.561-3.711,3.546-7.21,5.407-10.771,3.228-6.178,6.877-12.106,10.637-17.972,1.435-2.239,2.767-4.546,4.1-6.849a37.913,37.913,0,0,1,3.006-4.521c1.474-1.868,2.93-3.75,4.4-5.622a4.572,4.572,0,0,1,.425-.426c.414.079.3.347.294.538q-.4,9.682-.82,19.363C31.518,211.46,31.368,215.594,31.2,219.728Zm145.9,40.546c-.022.962-.12,1.923-.2,2.883-.073.913-.151,1-.984.985-.737-.009-1.473-.057-2.209-.08q-9.093-.286-18.186-.57c-5.949-.191-11.9-.4-17.845-.583q-14.787-.454-29.575-.886c-1.36-.041-2.718-.115-4.077-.173,0,.01,0,.019,0,.029q-14.363-.436-28.725-.873-10.963-.336-21.926-.68-10.113-.311-20.226-.619c-2.118-.068-1.9.143-1.821-2.006q.485-13.68,1.024-27.358.354-9.346.711-18.691.348-9.176.69-18.351c.21-5.777.392-11.556.615-17.332.061-1.584.191-3.168.352-4.746.275-2.7.5-5.416.943-8.1a15,15,0,0,1,.9-3.088,3.142,3.142,0,0,1,2.01-1.934,17.889,17.889,0,0,1,2.463-.63,82.146,82.146,0,0,1,19.144-.922q7.637.468,15.279.854c6.339.32,12.681.589,19.021.9,5.548.272,11.1.356,16.65.594,8.27.354,16.539.617,24.814.731,2.437.034,4.875.025,7.312.094,4.193.119,8.386.244,12.575.443,3.509.166,7.015.422,10.52.68a17.151,17.151,0,0,1,3.178.536,10.4,10.4,0,0,1,2.327,1,3.732,3.732,0,0,1,1.835,2.508,47.3,47.3,0,0,1,1.384,9.912c.136,2.547.182,5.1.109,7.65-.1,3.344-.027,6.684.153,10.028.24,4.472.2,8.953.13,13.431-.043,2.835-.012,5.665.227,8.495.186,2.2.271,4.412.39,6.619.322,6,.693,12,.941,18C177.313,246.1,177.264,253.19,177.1,260.274Zm9.706,3.44a2.181,2.181,0,0,1-1,.081c-2.192-.248-4.381-.517-6.569-.789a5.955,5.955,0,0,1-.757-.209c.078-4.041.268-7.931.161-11.846a6.351,6.351,0,0,1,.866-.208,16.1,16.1,0,0,1,8.894,1.6,8.269,8.269,0,0,1,2.659,2.075,4.686,4.686,0,0,1,.237,6.085A9.667,9.667,0,0,1,186.806,263.714Zm11.165-2.228a10.707,10.707,0,0,1-7.845,2.611c-.034,0-.064-.071-.1-.114-.081-.372.254-.456.457-.614a9.772,9.772,0,0,0,2.121-2.187,6,6,0,0,0-.191-7.42,9.876,9.876,0,0,0-3.554-2.837,16.485,16.485,0,0,0-6.869-1.689c-1.066-.035-2.135-.006-3.318-.006-.082-5.937-.107-11.814-.527-17.611.429-.392.722-.078.987.05a51.4,51.4,0,0,1,13.3,9.021,33.135,33.135,0,0,1,5.6,6.8,17.708,17.708,0,0,1,2.463,6.284,8.9,8.9,0,0,1-.408,4.683A7.107,7.107,0,0,1,197.97,261.487Zm7.666-5.541a8.909,8.909,0,0,1-6.477,6.538,10.415,10.415,0,0,0,2.509-4.11,11.946,11.946,0,0,0-.2-6.859,22.251,22.251,0,0,0-3.194-6.338,39.7,39.7,0,0,0-7.592-7.971,55.766,55.766,0,0,0-11.045-6.933c-.305-.147-.611-.3-.929-.415a1.018,1.018,0,0,1-.782-1.141,8.541,8.541,0,0,0-.024-1.188c-.309-5.314-.633-10.627-.923-15.942-.083-1.526-.14-3.059-.087-4.585.13-3.739.048-7.476-.009-11.213-.008-.492,0-.984,0-1.429.413-.183.505.088.609.252.574.909,1.17,1.808,1.681,2.752a74.057,74.057,0,0,0,5.43,8.609c1.91,2.6,3.56,5.379,5.316,8.085,2.494,3.846,5.055,7.648,7.544,11.5,1.228,1.9,2.375,3.854,3.531,5.8a41.586,41.586,0,0,1,5.283,15.829A22.512,22.512,0,0,1,205.637,255.946Z" transform="translate(0)" fill="#212121"/>
        <path id="Path_3717" data-name="Path 3717" d="M.02,0,0,0,0,.007Z" transform="translate(80.731 25.807)"/>
        <g id="Group_391" data-name="Group 391" transform="translate(96.404 51.253)">
          <path id="Path_3718" data-name="Path 3718" d="M.02,0,0,.03S.022,0,.022,0Z" transform="translate(0 0.327)"/>
          <path id="Path_3719" data-name="Path 3719" d="M.084,0,0,.027.085,0Z" transform="translate(0.639 0)"/>
        </g>
        <path id="Path_3720" data-name="Path 3720" d="M22.936,3.045a4.724,4.724,0,0,0-1.743-1.318A14.408,14.408,0,0,0,17.829.608,30.865,30.865,0,0,0,7.2.335,16.75,16.75,0,0,0,2.482,1.624,5.262,5.262,0,0,0,.562,2.982,2.092,2.092,0,0,0,.507,5.774a4.092,4.092,0,0,0,1.151.987,9.571,9.571,0,0,0,2.32,1.014,26.834,26.834,0,0,0,7.961,1.019,23.676,23.676,0,0,0,4.8-.387,14.9,14.9,0,0,0,4.373-1.276,4.824,4.824,0,0,0,1.868-1.42A2.134,2.134,0,0,0,22.936,3.045ZM7.012,5.957a.9.9,0,0,1-.781.781,6.606,6.606,0,0,1-.76.062,5.383,5.383,0,0,1-2.246-.358.84.84,0,0,1-.481-.65A.863.863,0,0,1,3.2,4.95a.558.558,0,0,1,.143-.09,4.565,4.565,0,0,1,3.147.132A.862.862,0,0,1,7.012,5.957Z" transform="translate(95.347 106.759)"/>
        <path id="Path_3721" data-name="Path 3721" d="M8.5,1.9A3.176,3.176,0,0,0,3.509.765,6.116,6.116,0,0,0,1.9,2.492,12.094,12.094,0,0,0,.139,10.92a6.129,6.129,0,0,0,.5,1.608c1.118,2.5,3.42,3.018,5.5,1.25a7.468,7.468,0,0,0,1.759-2.257,12.15,12.15,0,0,0,1.43-5.956A7.134,7.134,0,0,0,8.5,1.9ZM1.92,10.138A.826.826,0,0,1,1.147,9.4a1.007,1.007,0,0,1,.912-1.015.774.774,0,0,1,.741.559A1.022,1.022,0,0,1,1.92,10.138ZM7.149,5.956A8.194,8.194,0,0,1,6.2,9.528a1.546,1.546,0,0,1-1.451.992A1.67,1.67,0,0,1,3.469,9.1c-.062-.274-.08-.558-.111-.785A5.7,5.7,0,0,1,4.843,4.4c.729-.711,1.409-.608,1.921.277A2.294,2.294,0,0,1,7.149,5.956Z" transform="translate(124.008 77.98)" fill="#010101"/>
        <path id="Path_3722" data-name="Path 3722" d="M0,0" transform="translate(57.079 109.089)"/>
        <path id="Path_3723" data-name="Path 3723" d="M0,.07.063,0A.175.175,0,0,0,0,.07Z" transform="translate(35.899 138.64)"/>
        <path id="Path_3724" data-name="Path 3724" d="M.985.742C.722,1.086.361,1.037,0,.987A1.459,1.459,0,0,1,.3,0C.4.369.456.772.985.742Z" transform="translate(146.898 87.307)" fill="#7f577d"/>
        <path id="Path_3725" data-name="Path 3725" d="M5.267,10.6c-.565,0-1.13.01-1.694,0A3.351,3.351,0,0,1,.02,6.656,8.343,8.343,0,0,1,.849,3.917,14.391,14.391,0,0,0,2.341.339C2.382.089,2.622,0,2.857,0A.657.657,0,0,1,3.5.452a1.42,1.42,0,0,1,0,.828,9.384,9.384,0,0,1-.874,2.195,11.038,11.038,0,0,0-.979,2.515c-.051.278-.138.55-.166.83A1.842,1.842,0,0,0,3.359,9.1a19.556,19.556,0,0,0,5.392-.274c.109-.03.211-.083.321-.107.595-.131,1.016.029,1.119.418.1.369-.191.809-.742.991a8.713,8.713,0,0,1-2.827.473c-.452,0-.9,0-1.355,0A.025.025,0,0,0,5.267,10.6Z" transform="translate(106.076 85.905)" fill="#060505"/>
        <path id="Path_3726" data-name="Path 3726" d="M5.782,0a9.855,9.855,0,0,1,5.462,1.521,17.094,17.094,0,0,1,2.732,2.286,3.392,3.392,0,0,1,.595.815.606.606,0,0,1-.194.758.561.561,0,0,1-.765.076c-.266-.206-.49-.465-.747-.685-.731-.625-1.429-1.3-2.211-1.852a8.218,8.218,0,0,0-7.3-1A5.164,5.164,0,0,0,1.412,2.934c-.215.178-.4.426-.7.434a.948.948,0,0,1-.48-.091.549.549,0,0,1-.219-.593,1.293,1.293,0,0,1,.564-.814A7.428,7.428,0,0,1,3.583.359,19.814,19.814,0,0,1,5.782,0Z" transform="translate(122.692 64.952)" fill="#070505"/>
        <path id="Path_3727" data-name="Path 3727" d="M14.561,6.072A7.407,7.407,0,0,0,9.18.3C8.855.212,8.537.1,8.215,0A2.081,2.081,0,0,1,6.731.213,5.033,5.033,0,0,0,2,2.912c0,.614-.449,1.018-.71,1.509A9.763,9.763,0,0,0,.222,11.29a8.41,8.41,0,0,0,3.463,5.232c.227.182.489.313.719.49.315.169.6.473,1.007.211a12.371,12.371,0,0,0,2.173.134,7.805,7.805,0,0,0,5.631-3.593c.313-.452.431-1.052.974-1.337a3.933,3.933,0,0,1,.261-1.491A9.02,9.02,0,0,0,14.561,6.072ZM10.37,13.883a3.912,3.912,0,0,1-1.943.961,5.01,5.01,0,0,1-.685.073A4.712,4.712,0,0,1,3.92,13.487,7.062,7.062,0,0,1,3.3,4.594,1.38,1.38,0,0,1,3.692,4.3c.043-.028.139-.047.16-.025.068.076.179.2.155.256-.184.408-.4.8-.6,1.2a6.347,6.347,0,0,0,.078,6.022A4.218,4.218,0,0,0,9.636,13.6a1.686,1.686,0,0,1,.453-.22.34.34,0,0,1,.289.062A.293.293,0,0,1,10.37,13.883Zm1.216-1.263a.307.307,0,0,1-.256-.126c-.1-.184.128-.553.344-.59a.324.324,0,0,1,.307.313A.432.432,0,0,1,11.586,12.62Z" transform="translate(60.567 89.165)" fill="#0567e1"/>
        <path id="Path_3728" data-name="Path 3728" d="M12.042,3.061a2,2,0,0,1-.456-1.077,3.29,3.29,0,0,1-.57-.341A6.222,6.222,0,0,0,6.261.014L5.5.375C5.218.627,4.8.342,4.518.619A8.192,8.192,0,0,0,.366,10.46a2.068,2.068,0,0,1,.109,1.3c.524.056.688.517.951.858a5.816,5.816,0,0,0,3.616,2.205,13.863,13.863,0,0,0,1.491.135c.268.247.5-.03.756-.046.255-.119.5-.254.766-.354A8.188,8.188,0,0,0,12.042,3.061ZM6.2,12.577a2.339,2.339,0,0,1-1.706-.59,4.136,4.136,0,0,1-1.716-2.41,5.816,5.816,0,0,1,.109-5.187A4.022,4.022,0,0,1,4.725,2.474a1.132,1.132,0,0,1,.811-.134c.082.019.153.127.207.209a.166.166,0,0,1-.021.16,1.8,1.8,0,0,1-.394.3C3.433,3.929,3,5.606,3,7.5a13.39,13.39,0,0,0,.132,1.337c.072.152.154.3.215.457A4.029,4.029,0,0,0,6.3,12.026c.094.021.149.266.19.415A.594.594,0,0,1,6.2,12.577Zm3.268-1.488a.537.537,0,0,1-.462.4.422.422,0,0,1-.376-.573.4.4,0,0,1,.493-.3A.476.476,0,0,1,9.471,11.088Z" transform="translate(142.38 87.675)" fill="#0567e1"/>
        <path id="Path_3729" data-name="Path 3729" d="M7.173,2.7A5.46,5.46,0,0,0,5.356.507,2.757,2.757,0,0,0,2.046.6a4.559,4.559,0,0,0-1.3,1.748A8.944,8.944,0,0,0,0,6.381a10.272,10.272,0,0,0,1.1,4.832,5.488,5.488,0,0,0,1.577,1.963,2.819,2.819,0,0,0,3.956-.349,5.2,5.2,0,0,0,1.209-2.208A11.063,11.063,0,0,0,7.173,2.7ZM2.664,9.969a.915.915,0,0,1-.879-.834.857.857,0,0,1,.832-.865.864.864,0,0,1,.781.737A.9.9,0,0,1,2.664,9.969Zm3.4-1.322A1.065,1.065,0,0,1,4.142,8.7a2.986,2.986,0,0,1-.377-.93,6.767,6.767,0,0,1,.1-2.86,1.017,1.017,0,0,1,.053-.161c.257-.7.834-1.242,1.3-1.166a1.49,1.49,0,0,1,1.2,1.274,13.955,13.955,0,0,1,.21,1.506A4.465,4.465,0,0,1,6.064,8.647Z" transform="translate(80.491 75.286)" fill="#010101"/>
      </g>
      <g id="Group_395" data-name="Group 395" transform="translate(0 138.724)">
        <g id="Group_393" data-name="Group 393" transform="translate(0 14.83)">
          <path id="Path_3730" data-name="Path 3730" d="M435.447,113.68a5.949,5.949,0,0,0-2.177-.224q-8.5-.219-17-.408-10.286-.234-20.573-.458c-1.814-.042-3.626-.112-5.439-.188-.179-.008-.474.107-.533-.28a3.211,3.211,0,0,1,.385-.235,26.391,26.391,0,0,0,8.723-6.262,2.488,2.488,0,0,1,1.659-.791,32.185,32.185,0,0,0,10.209-2.388,21.717,21.717,0,0,0,5.963-3.543,10.722,10.722,0,0,0,2.23-2.549,4.7,4.7,0,0,0-1.534-6.92,9.678,9.678,0,0,0-2.783-1.23,19.133,19.133,0,0,0-5.036-.691,1.977,1.977,0,0,1-1.259-.175c.282-1.517.571-2.959.808-4.41a9.233,9.233,0,0,0,.149-2.09,1.749,1.749,0,0,0-1.532-1.617,11.528,11.528,0,0,0-1.4-.024q-25.34.1-50.68.192c-1.19,0-2.38-.024-3.57-.025a4.388,4.388,0,0,0-1.67.255.853.853,0,0,0-.62.906,15.057,15.057,0,0,0,.308,2.183,49.172,49.172,0,0,0,8.936,18.9,32.931,32.931,0,0,0,11.833,9.747c.23.109.53.165.642.615-.524,0-1.009.011-1.493,0-3.173-.083-6.347-.182-9.52-.254q-18.277-.418-36.555-.824-7.821-.178-15.641-.374-18.446-.444-36.893-.888c-6.8-.16-13.6-.3-20.4-.455q-20.062-.468-40.124-.95-19.977-.478-39.953-.962c-11.845-.277-23.69-.524-35.534-.805q-24.567-.584-49.134-1.195-16.747-.4-33.494-.764a1.745,1.745,0,0,1-1.189-.209c.1-.47.184-.969.31-1.458q3.54-13.73,7.09-27.457c.312-1.206.647-2.405.948-3.614a.649.649,0,0,1,.72-.555c.68,0,1.361.016,2.041,0,1.018-.025,1.2-.166,1.331-1.13.488-3.65.971-7.3,1.429-10.954.181-1.446.081-1.541-1.4-1.585q-6.289-.184-12.579-.35c-.446-.012-.892-.02-1.336-.058a.5.5,0,0,1-.454-.445,7.666,7.666,0,0,1-.034-.847q0-4.847,0-9.694a1.629,1.629,0,0,1,.127-.975.45.45,0,0,1,.17-.022,1.368,1.368,0,0,1,.3.127A11.134,11.134,0,0,0,58.1,46.41c2.971-.543,5.458-2.134,7.971-3.661a.821.821,0,0,0-.06-1.426c-1.021-.712-2.071-1.385-3.138-2.028a16.911,16.911,0,0,0-4.007-1.822c-3.064-.886-6.035-.928-8.8.949-.072.049-.206.006-.31.006-.045-.1-.126-.193-.126-.288q-.006-4.165,0-8.33a.282.282,0,0,1,.051-.16c.029-.038.088-.052.134-.076.052-.006.125-.037.154-.013.265.212.518.441.785.652a11.136,11.136,0,0,0,8.081,2.462,20.332,20.332,0,0,0,11.021-4.446c.089-.069.168-.152.251-.229A.816.816,0,0,0,70,26.6c-1.431-.913-2.827-1.88-4.248-2.809a10.627,10.627,0,0,0-1.195-.643,10.916,10.916,0,0,0-6.273-1.037,14.535,14.535,0,0,0-7.947,3.527c-.387.34-.633.464-1.123.066s-1.015-.07-1.082.551a14.367,14.367,0,0,0-.043,1.527q0,13.605.008,27.211c0,.454.011.908,0,1.361-.021.6-.126.716-.679.7q-2.38-.06-4.76-.141c-.757-.026-.766-.045-.785-.779-.007-.283,0-.567,0-.85q.168-19.387.342-38.774c0-.253-.117-.574.236-.72.056.013.119.01.153.039.3.26.588.531.888.788a10.049,10.049,0,0,0,7.981,2.609A11.792,11.792,0,0,0,55.5,17.97c3.077-1.561,5.5-3.964,8.019-6.242.322-.291.218-.673-.184-.733A18.555,18.555,0,0,1,57.6,8.969c-.855-.438-1.738-.826-2.632-1.18a9.216,9.216,0,0,0-6.8-.033,11.14,11.14,0,0,0-4.825,3.357c-.171.206-.324.492-.637.269,0-1.326-.064-2.632.016-3.929a7.88,7.88,0,0,0-1.17-4.362A5.542,5.542,0,0,0,38.2.393a10.039,10.039,0,0,0-5.04-.14,20.859,20.859,0,0,0-4,1.381,24.771,24.771,0,0,1-4.817,1.622,6.051,6.051,0,0,0-.979.281.894.894,0,0,0-.279,1.612,4.073,4.073,0,0,0,.669.522,39.539,39.539,0,0,0,6.56,3.553c3.247,1.241,6.579,1.682,9.946.35a1.8,1.8,0,0,1,.492-.048,79.206,79.206,0,0,1-.161,9.131c-.4.147-.615-.2-.885-.358a12.932,12.932,0,0,0-3.749-1.55A14.566,14.566,0,0,0,24.98,18.441c-1.793,1.082-3.512,2.286-5.262,3.438a2.462,2.462,0,0,0-.392.323.863.863,0,0,0,.107,1.33,7.109,7.109,0,0,0,2.172.941q3.152,1.006,6.324,1.95a13.836,13.836,0,0,0,11.6-1.4c.194-.117.385-.239.582-.349.229-.127.481-.025.5.2.019.282.027.564.025.847q-.094,14.115-.205,28.23a5.954,5.954,0,0,1-.243,2.825,11.943,11.943,0,0,1-2.707.031c-1.473-.036-2.945-.114-4.418-.17-.4-.015-.639-.179-.644-.6,0-.113-.008-.226-.011-.34q-.17-8.5-.339-17a4.272,4.272,0,0,1,.138-1.514,2.356,2.356,0,0,0-.5-2.222A4.269,4.269,0,0,0,29.541,33.4a8.785,8.785,0,0,0-4.2-.256c-2.888.4-5.211,2.129-7.726,3.4a.8.8,0,0,0-.111,1.2,4.654,4.654,0,0,0,.958.691A19.186,19.186,0,0,0,24.185,40.5a8.326,8.326,0,0,0,5.478-.607c.275-.141.559-.427.956-.155.015.257.04.539.046.82q.1,4.591.2,9.181.062,3.061.105,6.122c.008.6-.1.71-.663.714-.794.005-1.587-.01-2.381-.031-4.137-.108-8.273-.23-12.41-.325-1.222-.028-1.374.141-1.46,1.321-.012.169-.013.34-.018.51-.1,3.626-.217,7.252-.311,10.878-.051,1.966-.036,1.966,1.959,1.982,1.02.008,2.041,0,3.061.03.733.018.847.139.971.883.009.056.012.113.02.169q.84,5.716,1.681,11.432,1.345,9.162,2.683,18.326a7.706,7.706,0,0,1,.135,2.065c-.474,0-.864.008-1.255,0q-10.966-.271-21.931-.55a6.785,6.785,0,0,1-.735-.075L0,104.843a20.763,20.763,0,0,0,4.266.263q18.695.439,37.391.842,8.413.19,16.825.4,18.355.441,36.709.88c6.855.162,13.71.3,20.565.461q19.8.462,39.6.938,19.375.465,38.749.938,18.1.423,36.2.811,8.073.183,16.145.386,18.355.442,36.709.884c6.855.162,13.71.3,20.565.459q20.649.478,41.3.967,18.864.45,37.729.919,13,.312,26,.6,12.747.282,25.495.535c.393.008.786-.049,1.179-.076A1.491,1.491,0,0,0,435.447,113.68ZM49.668,40.575a7.4,7.4,0,0,1,3.455-2.06l4.064.076a5.786,5.786,0,0,1,3.062.97s2.793,1.286,2.99,1.45a.554.554,0,0,1,.129.2,1.512,1.512,0,0,1-.72,1.923c-.21.109-.378.2-.406.217a14.033,14.033,0,0,1-2.9,1.221c-1.156.517-5.7.962-6.261.426a35.043,35.043,0,0,1-3.328-1.952h0c0-.217-.081-2.473-.081-2.473Zm1.054-13.589h0l.609-.391h0l.364-.353h0l.384-.378h0a15.1,15.1,0,0,1,4.851-2.022c.546-.1,1.088-.226,1.631-.34h0c1.117-.5,3.76.212,4.562.6.557.273,1.122.529,1.673.814a21.972,21.972,0,0,1,2.411,1.457,2.251,2.251,0,0,1,.642.807c.087.5-.5,1.09-.542,1.09-.451.458-1.927.609-1.94.67L61.96,30.358a28.85,28.85,0,0,1-3.308.836,6.146,6.146,0,0,1-2.241-.105,2.4,2.4,0,0,0-.476-.071,7.7,7.7,0,0,1-3.31-.73,2.15,2.15,0,0,1-.489-.65c-.435-.381-.877-.755-1.3-1.148C50.683,28.35,50.142,27.314,50.722,26.986ZM43.231,13.361h0c.084-.079,2.581-2.717,2.665-2.8,1.459-1.2,6.187-1.879,7.25-1.645,2.422.533,6.974,3.455,7.073,3.467a.191.191,0,0,1,.128.175c0,.079-.014.119-.037.119a9.035,9.035,0,0,1-1.426,1.228,11.948,11.948,0,0,1-2.117,1.639c-.13.078-1.028.636-1.051.636-.232.142-.471.274-.7.426a15.642,15.642,0,0,1-3.71,1.263,6.13,6.13,0,0,1-5.29-1.51c-.543-.479-2.693-1.578-2.754-1.963C43.188,14.055,42.7,13.726,43.231,13.361ZM40.439,21.59a9.045,9.045,0,0,1-2.381,2.2,17.219,17.219,0,0,1-4.412,1.763,12.211,12.211,0,0,1-3.149-.029c-.159-.021-3.027-.656-4.431-1.051-.19-.054-3.063-.593-4.088-1.452-.131-.11.15-.9.556-1.173.651-.452,1.164-.868,1.736-1.316.445-.349,4.619-2.2,4.76-2.239a24.2,24.2,0,0,1,4.347-.472c1.835.086,6.888,2.5,7.035,2.667A.879.879,0,0,1,40.439,21.59ZM29.3,38.555c-.334.557-3.1.955-4.3.584h0l-1.349-.256c-.24-.09-.517-.1-.748-.207-.313-.147-1.917-.489-2.707-.86-.558-.566-.517-.765.272-1.31.179-.043,1.413-.727,1.951-1.026h0c.586-.2,4.969-1.347,5.521-1.077h0a4.245,4.245,0,0,1,.815.157,4.627,4.627,0,0,0,.652.254,2.195,2.195,0,0,1,1.323,1.353C30.854,37.089,29.274,38.541,29.3,38.555ZM35.24,1.52c2.644-.373,4.16-.384,5.25,2.309.09.214.22.2.435.655a4.071,4.071,0,0,1,.243.51c.014.046.027.089.041.131a1.452,1.452,0,0,1-.378,1.52.782.782,0,0,1-.386.2h0A15.865,15.865,0,0,1,38.191,8.3a4.815,4.815,0,0,1-2.22.617,27.176,27.176,0,0,1-4.481-.7v0s0,0,0,0c-.562-.232-1.013-.736-1.718-.632-.15.022-.338-.216-.508-.334L26.831,5.789a.328.328,0,0,0-.222-.154l-.382-.149h0a5.082,5.082,0,0,1-.591-.274.13.13,0,0,1-.029-.025.212.212,0,0,1,.108-.333.514.514,0,0,1,.085-.02M16.875,69.486c-.4,0-.794,0-1.189-.023a.4.4,0,0,1-.429-.411q-.011-.339,0-.678.119-4.926.24-9.853a1.11,1.11,0,0,1,.24-.793c1.454-.073,46.606,1.174,48.238,1.348-.27,2.1-.526,4.115-.791,6.132-.178,1.353-.368,2.7-.551,4.056a.572.572,0,0,1-.553.5c-.509.011-1.019.017-1.529.013q-17.334-.127-34.668-.256C22.878,69.5,19.877,69.5,16.875,69.486Zm31.647,34.938q-10.876-.28-21.753-.553c-.223-.006-.446-.033-.886-.067C24.3,93.079,22.736,82.438,21.174,71.8a5.217,5.217,0,0,1,0-.709,5.341,5.341,0,0,1,.7-.12c3.045-.1,35.463.22,36.608.364-.2.828-.4,1.648-.61,2.465Q54.093,88.426,50.3,103.05C49.932,104.469,50.278,104.469,48.521,104.424Zm359.96-15.445a17.9,17.9,0,0,1,6.741,1,6.471,6.471,0,0,1,1.689.935,3.1,3.1,0,0,1,.979,4.234,7.2,7.2,0,0,1-1.275,1.793,12.84,12.84,0,0,1-2.346,1.952,28.345,28.345,0,0,1-12.041,4.293,5.794,5.794,0,0,1-.678.048,2.983,2.983,0,0,1-.473-.092c.169-.3.236-.446.33-.575a41.722,41.722,0,0,0,6.037-12.291c.068-.216.115-.438.177-.656A.8.8,0,0,1,408.482,88.979Zm-56.513-5.691c-.141-.593-.289-1.184-.426-1.743a1.248,1.248,0,0,1,.981-.362c.961-.044,1.923-.095,2.885-.1q25.222-.074,50.445-.135c.5,0,1,0,1.178,0,.453.157.489.246.479.381-.195,2.454-.235,1.985-2.167,2q-24.881.253-49.763.472c-.962.009-1.924.031-2.886.042A.667.667,0,0,1,351.969,83.288Zm21.225,27.2a27.753,27.753,0,0,1-8.325-5.166,38.675,38.675,0,0,1-7.773-9.595,49.671,49.671,0,0,1-4.183-9.267c-.225-.665-.14-.8.574-.859.733-.061,1.47-.094,2.205-.1q24.638-.218,49.276-.422a5.806,5.806,0,0,1,1.819.094,4.155,4.155,0,0,1-.286,1.89,41.33,41.33,0,0,1-4.792,11.921,29.975,29.975,0,0,1-7.083,8.172,21.937,21.937,0,0,1-10.935,4.708A21.24,21.24,0,0,1,373.194,110.488Z" transform="translate(0 0)"/>
        </g>
        <path id="Path_3731" data-name="Path 3731" d="M0,1.374Q.008.687.017,0L.333.017v1.36Z" transform="translate(435.431 128.51)" fill="#747272"/>
        <path id="Path_3732" data-name="Path 3732" d="M1.508,31.546a6.849,6.849,0,0,0-.484-4.069,5.162,5.162,0,0,1,.168-4.736,10.07,10.07,0,0,0,.724-2.08,2.537,2.537,0,0,0-.2-1.812c-.127-.253-.258-.5-.383-.758a4.845,4.845,0,0,1-.3-4.1c.207-.524.3-1.091.488-1.625A4.566,4.566,0,0,0,1.3,8.895C.982,8.17.7,7.43.409,6.692a5.327,5.327,0,0,1-.1-3.818c.207-.587.353-1.2.573-1.777A3.252,3.252,0,0,1,1.39.231.654.654,0,0,1,2.16.053a.6.6,0,0,1,.37.523,3.482,3.482,0,0,1-.2,1.5C1.521,5,1.49,5.023,2.719,7.766a7.01,7.01,0,0,1,.324,5.6c-.061.158-.091.329-.157.484A4.123,4.123,0,0,0,3.174,17.9,4.03,4.03,0,0,1,3.5,21.5c-.277.8-.595,1.588-.907,2.376a3.081,3.081,0,0,0-.074,2.622,11.254,11.254,0,0,1,.707,6.163,1.723,1.723,0,0,1-.341,1.112,1.032,1.032,0,0,1-.557.33.658.658,0,0,1-.654-.453,2.524,2.524,0,0,1-.162-.821C1.491,32.318,1.508,31.807,1.508,31.546Z" transform="translate(382.899 47.511)" fill="#020202"/>
        <path id="Path_3733" data-name="Path 3733" d="M3.608,29.132a2.912,2.912,0,0,1-.723-1.857,9.575,9.575,0,0,0-.8-2.933,5.119,5.119,0,0,1-.26-3.959,4.356,4.356,0,0,0-.22-3.3,1.188,1.188,0,0,0-.077-.151A6.625,6.625,0,0,1,1.092,11.2a5.843,5.843,0,0,0-.048-3.672C.74,6.557.447,5.582.189,4.6A5.5,5.5,0,0,1,.7.487,1.441,1.441,0,0,1,1,.094a.355.355,0,0,1,.3-.082.776.776,0,0,1,.353.325.891.891,0,0,1,.031.5A10.178,10.178,0,0,0,2.339,6c.089.268.152.546.247.811a7.951,7.951,0,0,1,.137,5.006,11.142,11.142,0,0,0-.312,1.319,3.767,3.767,0,0,0,.336,2.313,16.6,16.6,0,0,1,.664,1.56A5.125,5.125,0,0,1,3.579,20.5a4.483,4.483,0,0,0,.209,3.456,8.068,8.068,0,0,1,.741,2.6A2.622,2.622,0,0,1,3.608,29.132Z" transform="translate(370.414 32.189)" fill="#020202"/>
        <path id="Path_3734" data-name="Path 3734" d="M1.74,2.171a5.43,5.43,0,0,0,.83,3.936,5.543,5.543,0,0,1,.455,5.058,3.886,3.886,0,0,0,.29,3.581,8.536,8.536,0,0,1,.578,1.228,3.856,3.856,0,0,1,.147,2.819c-.226.64-.383,1.3-.6,1.948a2.551,2.551,0,0,0,.143,2.123,6.36,6.36,0,0,1,.71,3.787,2.282,2.282,0,0,1-.8,1.632.509.509,0,0,1-.817-.22,2.635,2.635,0,0,1-.122-1.338,5.174,5.174,0,0,0-.622-3.284,3.55,3.55,0,0,1-.23-2.953c.191-.593.351-1.2.566-1.78a3.092,3.092,0,0,0-.226-2.618c-.236-.452-.458-.911-.661-1.379A4.659,4.659,0,0,1,1.168,11.4C1.8,9.292,2.222,8.9.651,6.084-.5,4.018.033,2.033,1.047.1c.036-.068.2-.107.295-.095s.224.106.231.174C1.642.851,1.689,1.528,1.74,2.171Z" transform="translate(364.754 55.837)" fill="#030303"/>
        <path id="Path_3735" data-name="Path 3735" d="M1.664,1.812A6.154,6.154,0,0,0,2.42,5.653a3.075,3.075,0,0,1,.218,2.463c-.17.6-.333,1.2-.54,1.783a1.455,1.455,0,0,0,.118,1.3,6.633,6.633,0,0,1,.376.758A2.846,2.846,0,0,1,2.715,14.1c-.134.371-.214.761-.337,1.136a1.232,1.232,0,0,0,.283,1.392c1.173,1.2.921,2.568.369,3.945A1.508,1.508,0,0,1,2.762,21a.814.814,0,0,1-.9.319.661.661,0,0,1-.386-.693,6.858,6.858,0,0,1,.164-1.336,1.62,1.62,0,0,0-.449-1.7,2.314,2.314,0,0,1-.539-2.652c.053-.161.112-.32.17-.48a2.619,2.619,0,0,0-.176-2.573,2.512,2.512,0,0,1-.2-2.436c.122-.315.185-.654.309-.968A3.01,3.01,0,0,0,.6,5.73,4.4,4.4,0,0,1,.489,1.5C.708,1.044.871.561,1.081.1c.029-.064.183-.084.283-.1.145-.02.2.06.212.2C1.6.77,1.637,1.333,1.664,1.812Z" transform="translate(393.005 63.641)" fill="#040404"/>
        <path id="Path_3736" data-name="Path 3736" d="M3.3,14.951a2.013,2.013,0,0,1-.795-1.525A4.18,4.18,0,0,0,1.5,10.958a2.363,2.363,0,0,1-.383-2.688c.117-.257.2-.53.309-.79a1.577,1.577,0,0,0-.161-1.607A10.261,10.261,0,0,1,.574,4.7,5.227,5.227,0,0,1,.356.42C.436.2.516-.024.793,0c.244.024.373.231.475.433A3.33,3.33,0,0,1,1.7,2.06a4.228,4.228,0,0,0,.88,2.695,3.2,3.2,0,0,1,.393,3.512,1.826,1.826,0,0,0,.275,2.173,4.338,4.338,0,0,1,.932,2.683A1.958,1.958,0,0,1,3.3,14.951Z" transform="translate(354.76 75.806)" fill="#060606"/>
        <path id="Path_3737" data-name="Path 3737" d="M1.062,10.8a3.379,3.379,0,0,0-.255-2,7.082,7.082,0,0,0-.374-.761A2.98,2.98,0,0,1,.264,5.273c.091-.207.166-.421.253-.629A2.489,2.489,0,0,0,.525,2.516,3.157,3.157,0,0,1,.209.868,2.068,2.068,0,0,1,.4.236c.116-.267.581-.324.7-.084.425.858.847,1.718,1.241,2.59A2.043,2.043,0,0,1,2.4,4.237a5.442,5.442,0,0,1-.291.972A2.63,2.63,0,0,0,2.282,7.93a4.232,4.232,0,0,1,.432,3.282,2.276,2.276,0,0,1-.247.625.776.776,0,0,1-.869.377.764.764,0,0,1-.574-.75A3.219,3.219,0,0,1,1.062,10.8Z" transform="translate(402.184 78.272)" fill="#080808"/>
        <path id="Path_3738" data-name="Path 3738" d="M1.873,1a.942.942,0,0,1-.85.863A1.065,1.065,0,0,1,0,.954.947.947,0,0,1,.759,0,1.113,1.113,0,0,1,1.873,1Z" transform="translate(349.797 53.091)"/>
        <path id="Path_3739" data-name="Path 3739" d="M.886,1.917A.982.982,0,0,1,0,.873.93.93,0,0,1,1.049.01a.941.941,0,0,1,.794.946A.947.947,0,0,1,.886,1.917Z" transform="translate(414.565 42.134)"/>
        <path id="Path_3740" data-name="Path 3740" d="M.969,0A.876.876,0,0,1,1.738.93a.919.919,0,0,1-.869.852A.9.9,0,0,1,.012.764.974.974,0,0,1,.969,0Z" transform="translate(388.469 25.904)" fill="#020202"/>
        <path id="Path_3741" data-name="Path 3741" d="M1.743.766a1.008,1.008,0,0,1-.928.987A.825.825,0,0,1,0,.89.918.918,0,0,1,.827,0,.839.839,0,0,1,1.743.766Z" transform="translate(418.956 79.169)"/>
        <path id="Path_3742" data-name="Path 3742" d="M1.816.965a.844.844,0,0,1-.933.765A.945.945,0,0,1,0,.866.849.849,0,0,1,.842,0,1.006,1.006,0,0,1,1.816.965Z" transform="translate(358.025 22.111)" fill="#020202"/>
        <path id="Path_3743" data-name="Path 3743" d="M1.64.9a.791.791,0,0,1-.9.785A.808.808,0,0,1,0,.91.931.931,0,0,1,.836,0,.861.861,0,0,1,1.64.9Z" transform="translate(414.111 67.756)"/>
        <path id="Path_3744" data-name="Path 3744" d="M1.764.75a.9.9,0,0,1-.823.888A.965.965,0,0,1,0,.857.91.91,0,0,1,1.022,0,.77.77,0,0,1,1.764.75Z" transform="translate(369.746 9.787)" fill="#020202"/>
        <path id="Path_3745" data-name="Path 3745" d="M1.659.857a.957.957,0,0,1-.837.884A.9.9,0,0,1,0,.868.9.9,0,0,1,.835,0,.857.857,0,0,1,1.659.857Z" transform="translate(346.973 71.263)"/>
        <path id="Path_3746" data-name="Path 3746" d="M1.645.877a.826.826,0,0,1-.872.832A.845.845,0,0,1,0,.944.939.939,0,0,1,.8,0,.863.863,0,0,1,1.645.877Z" transform="translate(382.796 35.043)"/>
        <path id="Path_3747" data-name="Path 3747" d="M1.7.768a.822.822,0,0,1-.792.876A.841.841,0,0,1,0,.883.88.88,0,0,1,.808,0,.821.821,0,0,1,1.7.768Z" transform="translate(391.591 13.068)" fill="#020202"/>
        <path id="Path_3748" data-name="Path 3748" d="M.837,1.509A.8.8,0,0,1,.01.864a.767.767,0,0,1,.6-.849.782.782,0,0,1,.924.708A.816.816,0,0,1,.837,1.509Z" transform="translate(374.641 85.874)"/>
        <path id="Path_3749" data-name="Path 3749" d="M1.494.684a.784.784,0,0,1-.663.84A.792.792,0,0,1,0,.843.8.8,0,0,1,.674.006.77.77,0,0,1,1.494.684Z" transform="translate(403.402 39.152)"/>
        <path id="Path_3750" data-name="Path 3750" d="M1.6.8a.812.812,0,0,1-.8.714.843.843,0,0,1-.794-.9A.812.812,0,0,1,.893.005.8.8,0,0,1,1.6.8Z" transform="translate(360.949 37.955)"/>
        <path id="Path_3751" data-name="Path 3751" d="M.705,1.51A.753.753,0,0,1,0,.738.79.79,0,0,1,.753,0a.772.772,0,0,1,.7.783A.747.747,0,0,1,.705,1.51Z" transform="translate(382.333 0)" fill="#020202"/>
        <path id="Path_3752" data-name="Path 3752" d="M1.269.59a.671.671,0,0,1-.588.7A.651.651,0,0,1,0,.688.622.622,0,0,1,.583,0,.629.629,0,0,1,1.269.59Z" transform="translate(407.439 56.754)"/>
        <path id="Path_3753" data-name="Path 3753" d="M.58,0A.562.562,0,0,1,1.1.555.552.552,0,0,1,.426,1.1.539.539,0,0,1,0,.471C.031.134.281.023.58,0Z" transform="translate(408.181 26.722)"/>
        <path id="Path_3754" data-name="Path 3754" d="M.989.445A.506.506,0,0,1,.5.982.446.446,0,0,1,.014.631.5.5,0,0,1,.393.005.536.536,0,0,1,.989.445Z" transform="translate(397.265 51.121)"/>
        <g id="Group_394" data-name="Group 394" transform="translate(51.715 87.143)">
          <path id="Path_3755" data-name="Path 3755" d="M3.422.53A.522.522,0,0,0,3.4.2a.356.356,0,0,0-.22-.2A.389.389,0,0,0,2.9.116a.637.637,0,0,0-.15.292A30.805,30.805,0,0,0,1.8,4.322a.285.285,0,0,0-.061.3h0A14.383,14.383,0,0,0,.8,8.068h0L.306,10.005a1.172,1.172,0,0,0-.287,1.063c.012.1.1.272.147.271A.654.654,0,0,0,.6,11.21c.092-.1.079-.3.112-.453h0a6.955,6.955,0,0,0,.439-1.892,14.047,14.047,0,0,0,.925-3.541.242.242,0,0,0,.049-.279h0A37.3,37.3,0,0,0,3.422.53Z" transform="translate(1.34 0)"/>
          <path id="Path_3756" data-name="Path 3756" d="M.945.058A.514.514,0,0,0,.732.619h0c-.1.451-.391.857-.315,1.348a.3.3,0,0,0-.106.278h0A1.128,1.128,0,0,0,.025,3.317c.015.1.108.271.156.268A.66.66,0,0,0,.62,3.436c.086-.107.055-.308.075-.468l.057-.591h0A1.653,1.653,0,0,0,1.095,1.3,1.242,1.242,0,0,0,1.416.251.293.293,0,0,0,.945.058Z" transform="translate(0 13.572)"/>
        </g>
        <path id="Path_3757" data-name="Path 3757" d="M4.077,26.555c-.313-2.3-.639-4.6-.962-6.9l-.026-.347a1.673,1.673,0,0,0-.24-1.222h0a2.146,2.146,0,0,0-.076-1.154h0L2.754,16.6A1.807,1.807,0,0,0,2.537,15.4h0q-.052-.59-.1-1.18A2.58,2.58,0,0,0,2.191,12.7h0L2.073,11.49a1.662,1.662,0,0,0-.239-1.225h0a2.153,2.153,0,0,0-.077-1.15h0l-.02-.334a1.784,1.784,0,0,0-.218-1.215h0A6.381,6.381,0,0,0,1.15,4.97h0l-.082-.937q0-.184,0-.368A2.745,2.745,0,0,0,.8,2.123h0C.766,1.57.756,1.015.7.465.679.255.585,0,.308,0,0,0,0,.268,0,.466a6.461,6.461,0,0,0,.114.824A2.294,2.294,0,0,0,.409,2.843h0A5.171,5.171,0,0,0,.722,5.437q.047.469.094.938l0,.36a2.585,2.585,0,0,0,.24,1.5v0l.12,1.227a1.668,1.668,0,0,0,.238,1.222h0a2.116,2.116,0,0,0,.078,1.153q.01.166.019.333a1.769,1.769,0,0,0,.217,1.2h0l.1,1.185a2.538,2.538,0,0,0,.241,1.511h0l.119,1.214a1.649,1.649,0,0,0,.238,1.225h0a2.113,2.113,0,0,0,.078,1.147,2.562,2.562,0,0,0,.263,1.556h0a40.9,40.9,0,0,0,.65,5.556.5.5,0,0,0,.14.293.488.488,0,0,0,.292.052.164.164,0,0,0,.123-.091A1.206,1.206,0,0,0,4.077,26.555Z" transform="translate(24.446 87.78)"/>
        <path id="Path_3758" data-name="Path 3758" d="M23.153.453h0C23.026.364,22.9.2,22.771.2,21.053.178,19.335.183,17.617.182h0C15.113.1,12.608.049,10.1.158h0Q5.308.076.513,0A.677.677,0,0,0,.072.158C-.108.331.092.416.217.5A32.1,32.1,0,0,0,6,.676C6.557.706,7.111.75,7.665.761,9.5.8,11.339.823,13.176.852a1.7,1.7,0,0,0,1.273.275c1.621.009,3.241.011,4.862.017,1.062,0,2.123.012,3.185.015.343,0,.675-.029.83-.412h0C23.33.613,23.319.488,23.153.453ZM6.076.448s0,0,0-.007h0Z" transform="translate(19.16 74.996)" fill="#060d0d"/>
      </g>
    </g>
  </g>
</svg>
